ISO-10303-21;
HEADER;
/* Generated by software containing ST-Developer
 * from STEP Tools, Inc. (www.steptools.com) 
 */
/* OPTION: using custom schema-name function */

FILE_DESCRIPTION(
/* description */ (''),
/* implementation_level */ '2;1');

FILE_NAME(
/* name */ 'Tek TDS500-600-700 Floppy Bracket',
/* time_stamp */ '2026-09-24T23:18:55+09:00',
/* author */ (''),
/* organization */ (''),
/* preprocessor_version */ 'ST-DEVELOPER v19.2',
/* originating_system */ 'Rhino 8.35',
/* authorisation */ '');

FILE_SCHEMA (('AUTOMOTIVE_DESIGN'));
ENDSEC;

DATA;
#10=SHAPE_REPRESENTATION_RELATIONSHIP('','',#341,#13);
#11=PRESENTATION_LAYER_ASSIGNMENT('Default','',(#12));
#12=MANIFOLD_SOLID_BREP('brep_1',#14);
#13=ADVANCED_BREP_SHAPE_REPRESENTATION('brep_rep_0',(#12,#369),#340);
#14=CLOSED_SHELL('',(#17,#18,#19,#20,#21,#22,#23,#24,#25,#26,#27,#28,#29,
#30,#31,#32,#33,#34));
#15=FACE_BOUND('',#56,.T.);
#16=FACE_BOUND('',#69,.T.);
#17=ADVANCED_FACE('',(#35),#309,.T.);
#18=ADVANCED_FACE('',(#36),#310,.T.);
#19=ADVANCED_FACE('',(#37,#15),#311,.T.);
#20=ADVANCED_FACE('',(#38),#312,.T.);
#21=ADVANCED_FACE('',(#39),#313,.T.);
#22=ADVANCED_FACE('',(#40),#314,.T.);
#23=ADVANCED_FACE('',(#41),#315,.T.);
#24=ADVANCED_FACE('',(#42),#316,.T.);
#25=ADVANCED_FACE('',(#43),#317,.T.);
#26=ADVANCED_FACE('',(#44),#305,.F.);
#27=ADVANCED_FACE('',(#45),#318,.T.);
#28=ADVANCED_FACE('',(#46),#319,.T.);
#29=ADVANCED_FACE('',(#47),#320,.T.);
#30=ADVANCED_FACE('',(#48),#306,.F.);
#31=ADVANCED_FACE('',(#49,#16),#321,.T.);
#32=ADVANCED_FACE('',(#50),#322,.T.);
#33=ADVANCED_FACE('',(#51),#307,.F.);
#34=ADVANCED_FACE('',(#52),#308,.F.);
#35=FACE_OUTER_BOUND('',#53,.T.);
#36=FACE_OUTER_BOUND('',#54,.T.);
#37=FACE_OUTER_BOUND('',#55,.T.);
#38=FACE_OUTER_BOUND('',#57,.T.);
#39=FACE_OUTER_BOUND('',#58,.T.);
#40=FACE_OUTER_BOUND('',#59,.T.);
#41=FACE_OUTER_BOUND('',#60,.T.);
#42=FACE_OUTER_BOUND('',#61,.T.);
#43=FACE_OUTER_BOUND('',#62,.T.);
#44=FACE_OUTER_BOUND('',#63,.T.);
#45=FACE_OUTER_BOUND('',#64,.T.);
#46=FACE_OUTER_BOUND('',#65,.T.);
#47=FACE_OUTER_BOUND('',#66,.T.);
#48=FACE_OUTER_BOUND('',#67,.T.);
#49=FACE_OUTER_BOUND('',#68,.T.);
#50=FACE_OUTER_BOUND('',#70,.T.);
#51=FACE_OUTER_BOUND('',#71,.T.);
#52=FACE_OUTER_BOUND('',#72,.T.);
#53=EDGE_LOOP('',(#73,#74,#75,#76));
#54=EDGE_LOOP('',(#77,#78,#79,#80));
#55=EDGE_LOOP('',(#81,#82,#83,#84,#85,#86,#87,#88));
#56=EDGE_LOOP('',(#89,#90));
#57=EDGE_LOOP('',(#91,#92,#93,#94));
#58=EDGE_LOOP('',(#95,#96,#97,#98,#99,#100,#101,#102,#103,#104,#105,#106));
#59=EDGE_LOOP('',(#107,#108,#109,#110));
#60=EDGE_LOOP('',(#111,#112,#113,#114,#115,#116));
#61=EDGE_LOOP('',(#117,#118,#119,#120));
#62=EDGE_LOOP('',(#121,#122,#123,#124));
#63=EDGE_LOOP('',(#125,#126,#127,#128));
#64=EDGE_LOOP('',(#129,#130,#131,#132,#133,#134));
#65=EDGE_LOOP('',(#135,#136,#137,#138));
#66=EDGE_LOOP('',(#139,#140,#141,#142));
#67=EDGE_LOOP('',(#143,#144,#145,#146));
#68=EDGE_LOOP('',(#147,#148,#149,#150));
#69=EDGE_LOOP('',(#151,#152));
#70=EDGE_LOOP('',(#153,#154,#155,#156,#157,#158,#159,#160));
#71=EDGE_LOOP('',(#161,#162,#163,#164));
#72=EDGE_LOOP('',(#165,#166,#167,#168));
#73=ORIENTED_EDGE('',*,*,#169,.T.);
#74=ORIENTED_EDGE('',*,*,#170,.T.);
#75=ORIENTED_EDGE('',*,*,#171,.F.);
#76=ORIENTED_EDGE('',*,*,#172,.F.);
#77=ORIENTED_EDGE('',*,*,#173,.T.);
#78=ORIENTED_EDGE('',*,*,#174,.T.);
#79=ORIENTED_EDGE('',*,*,#175,.F.);
#80=ORIENTED_EDGE('',*,*,#170,.F.);
#81=ORIENTED_EDGE('',*,*,#190,.T.);
#82=ORIENTED_EDGE('',*,*,#192,.T.);
#83=ORIENTED_EDGE('',*,*,#191,.T.);
#84=ORIENTED_EDGE('',*,*,#197,.T.);
#85=ORIENTED_EDGE('',*,*,#177,.T.);
#86=ORIENTED_EDGE('',*,*,#178,.F.);
#87=ORIENTED_EDGE('',*,*,#174,.F.);
#88=ORIENTED_EDGE('',*,*,#176,.T.);
#89=ORIENTED_EDGE('',*,*,#211,.T.);
#90=ORIENTED_EDGE('',*,*,#215,.T.);
#91=ORIENTED_EDGE('',*,*,#179,.T.);
#92=ORIENTED_EDGE('',*,*,#180,.T.);
#93=ORIENTED_EDGE('',*,*,#181,.F.);
#94=ORIENTED_EDGE('',*,*,#177,.F.);
#95=ORIENTED_EDGE('',*,*,#205,.T.);
#96=ORIENTED_EDGE('',*,*,#210,.T.);
#97=ORIENTED_EDGE('',*,*,#194,.T.);
#98=ORIENTED_EDGE('',*,*,#189,.T.);
#99=ORIENTED_EDGE('',*,*,#193,.T.);
#100=ORIENTED_EDGE('',*,*,#198,.T.);
#101=ORIENTED_EDGE('',*,*,#183,.T.);
#102=ORIENTED_EDGE('',*,*,#184,.F.);
#103=ORIENTED_EDGE('',*,*,#180,.F.);
#104=ORIENTED_EDGE('',*,*,#182,.T.);
#105=ORIENTED_EDGE('',*,*,#204,.T.);
#106=ORIENTED_EDGE('',*,*,#206,.T.);
#107=ORIENTED_EDGE('',*,*,#185,.T.);
#108=ORIENTED_EDGE('',*,*,#172,.T.);
#109=ORIENTED_EDGE('',*,*,#186,.F.);
#110=ORIENTED_EDGE('',*,*,#183,.F.);
#111=ORIENTED_EDGE('',*,*,#171,.T.);
#112=ORIENTED_EDGE('',*,*,#175,.T.);
#113=ORIENTED_EDGE('',*,*,#178,.T.);
#114=ORIENTED_EDGE('',*,*,#181,.T.);
#115=ORIENTED_EDGE('',*,*,#184,.T.);
#116=ORIENTED_EDGE('',*,*,#186,.T.);
#117=ORIENTED_EDGE('',*,*,#195,.F.);
#118=ORIENTED_EDGE('',*,*,#193,.F.);
#119=ORIENTED_EDGE('',*,*,#187,.T.);
#120=ORIENTED_EDGE('',*,*,#190,.F.);
#121=ORIENTED_EDGE('',*,*,#188,.F.);
#122=ORIENTED_EDGE('',*,*,#194,.F.);
#123=ORIENTED_EDGE('',*,*,#196,.T.);
#124=ORIENTED_EDGE('',*,*,#191,.F.);
#125=ORIENTED_EDGE('',*,*,#187,.F.);
#126=ORIENTED_EDGE('',*,*,#189,.F.);
#127=ORIENTED_EDGE('',*,*,#188,.T.);
#128=ORIENTED_EDGE('',*,*,#192,.F.);
#129=ORIENTED_EDGE('',*,*,#195,.T.);
#130=ORIENTED_EDGE('',*,*,#176,.F.);
#131=ORIENTED_EDGE('',*,*,#173,.F.);
#132=ORIENTED_EDGE('',*,*,#169,.F.);
#133=ORIENTED_EDGE('',*,*,#185,.F.);
#134=ORIENTED_EDGE('',*,*,#198,.F.);
#135=ORIENTED_EDGE('',*,*,#207,.F.);
#136=ORIENTED_EDGE('',*,*,#199,.F.);
#137=ORIENTED_EDGE('',*,*,#200,.T.);
#138=ORIENTED_EDGE('',*,*,#204,.F.);
#139=ORIENTED_EDGE('',*,*,#202,.F.);
#140=ORIENTED_EDGE('',*,*,#201,.F.);
#141=ORIENTED_EDGE('',*,*,#209,.T.);
#142=ORIENTED_EDGE('',*,*,#205,.F.);
#143=ORIENTED_EDGE('',*,*,#200,.F.);
#144=ORIENTED_EDGE('',*,*,#203,.F.);
#145=ORIENTED_EDGE('',*,*,#202,.T.);
#146=ORIENTED_EDGE('',*,*,#206,.F.);
#147=ORIENTED_EDGE('',*,*,#199,.T.);
#148=ORIENTED_EDGE('',*,*,#208,.T.);
#149=ORIENTED_EDGE('',*,*,#201,.T.);
#150=ORIENTED_EDGE('',*,*,#203,.T.);
#151=ORIENTED_EDGE('',*,*,#212,.T.);
#152=ORIENTED_EDGE('',*,*,#216,.T.);
#153=ORIENTED_EDGE('',*,*,#207,.T.);
#154=ORIENTED_EDGE('',*,*,#182,.F.);
#155=ORIENTED_EDGE('',*,*,#179,.F.);
#156=ORIENTED_EDGE('',*,*,#197,.F.);
#157=ORIENTED_EDGE('',*,*,#196,.F.);
#158=ORIENTED_EDGE('',*,*,#210,.F.);
#159=ORIENTED_EDGE('',*,*,#209,.F.);
#160=ORIENTED_EDGE('',*,*,#208,.F.);
#161=ORIENTED_EDGE('',*,*,#211,.F.);
#162=ORIENTED_EDGE('',*,*,#213,.T.);
#163=ORIENTED_EDGE('',*,*,#216,.F.);
#164=ORIENTED_EDGE('',*,*,#214,.F.);
#165=ORIENTED_EDGE('',*,*,#214,.T.);
#166=ORIENTED_EDGE('',*,*,#212,.F.);
#167=ORIENTED_EDGE('',*,*,#213,.F.);
#168=ORIENTED_EDGE('',*,*,#215,.F.);
#169=EDGE_CURVE('',#273,#274,#252,.T.);
#170=EDGE_CURVE('',#274,#275,#253,.T.);
#171=EDGE_CURVE('',#276,#275,#254,.T.);
#172=EDGE_CURVE('',#273,#276,#255,.T.);
#173=EDGE_CURVE('',#274,#277,#256,.T.);
#174=EDGE_CURVE('',#277,#278,#257,.T.);
#175=EDGE_CURVE('',#275,#278,#258,.T.);
#176=EDGE_CURVE('',#277,#285,#259,.T.);
#177=EDGE_CURVE('',#279,#280,#260,.T.);
#178=EDGE_CURVE('',#278,#280,#261,.T.);
#179=EDGE_CURVE('',#279,#281,#262,.T.);
#180=EDGE_CURVE('',#281,#282,#263,.T.);
#181=EDGE_CURVE('',#280,#282,#264,.T.);
#182=EDGE_CURVE('',#281,#295,#265,.T.);
#183=EDGE_CURVE('',#283,#284,#266,.T.);
#184=EDGE_CURVE('',#282,#284,#267,.T.);
#185=EDGE_CURVE('',#283,#273,#268,.T.);
#186=EDGE_CURVE('',#284,#276,#269,.T.);
#187=EDGE_CURVE('',#289,#286,#233,.T.);
#188=EDGE_CURVE('',#292,#288,#234,.T.);
#189=EDGE_CURVE('',#292,#289,#217,.T.);
#190=EDGE_CURVE('',#285,#286,#235,.T.);
#191=EDGE_CURVE('',#288,#287,#236,.T.);
#192=EDGE_CURVE('',#286,#288,#218,.T.);
#193=EDGE_CURVE('',#289,#290,#237,.T.);
#194=EDGE_CURVE('',#291,#292,#238,.T.);
#195=EDGE_CURVE('',#290,#285,#239,.T.);
#196=EDGE_CURVE('',#291,#287,#240,.T.);
#197=EDGE_CURVE('',#287,#279,#270,.T.);
#198=EDGE_CURVE('',#290,#283,#271,.T.);
#199=EDGE_CURVE('',#293,#299,#241,.T.);
#200=EDGE_CURVE('',#293,#296,#242,.T.);
#201=EDGE_CURVE('',#300,#294,#243,.T.);
#202=EDGE_CURVE('',#294,#298,#244,.T.);
#203=EDGE_CURVE('',#294,#293,#219,.T.);
#204=EDGE_CURVE('',#295,#296,#245,.T.);
#205=EDGE_CURVE('',#298,#297,#246,.T.);
#206=EDGE_CURVE('',#296,#298,#220,.T.);
#207=EDGE_CURVE('',#299,#295,#247,.T.);
#208=EDGE_CURVE('',#299,#300,#248,.T.);
#209=EDGE_CURVE('',#300,#297,#249,.T.);
#210=EDGE_CURVE('',#297,#291,#272,.T.);
#211=EDGE_CURVE('',#301,#303,#221,.T.);
#212=EDGE_CURVE('',#302,#304,#222,.T.);
#213=EDGE_CURVE('',#301,#302,#250,.T.);
#214=EDGE_CURVE('',#303,#304,#251,.T.);
#215=EDGE_CURVE('',#303,#301,#223,.T.);
#216=EDGE_CURVE('',#304,#302,#224,.T.);
#217=TRIMMED_CURVE($,#225,(#500),(#501),.T.,.CARTESIAN.);
#218=TRIMMED_CURVE($,#226,(#509),(#510),.T.,.CARTESIAN.);
#219=TRIMMED_CURVE($,#227,(#536),(#537),.T.,.CARTESIAN.);
#220=TRIMMED_CURVE($,#228,(#545),(#546),.T.,.CARTESIAN.);
#221=TRIMMED_CURVE($,#229,(#557),(#558),.T.,.CARTESIAN.);
#222=TRIMMED_CURVE($,#230,(#560),(#561),.T.,.CARTESIAN.);
#223=TRIMMED_CURVE($,#231,(#567),(#568),.T.,.CARTESIAN.);
#224=TRIMMED_CURVE($,#232,(#570),(#571),.T.,.CARTESIAN.);
#225=CIRCLE('',#361,1.55);
#226=CIRCLE('',#362,1.55);
#227=CIRCLE('',#363,2.55000000000001);
#228=CIRCLE('',#364,2.55000000000003);
#229=CIRCLE('',#365,1.29999999999997);
#230=CIRCLE('',#366,1.29999999999999);
#231=CIRCLE('',#367,1.30000000000001);
#232=CIRCLE('',#368,1.30000000000003);
#233=(
BOUNDED_CURVE()
B_SPLINE_CURVE(1,(#495,#496),.UNSPECIFIED.,.F.,.F.)
B_SPLINE_CURVE_WITH_KNOTS((2,2),(0.,5.),.UNSPECIFIED.)
CURVE()
GEOMETRIC_REPRESENTATION_ITEM()
RATIONAL_B_SPLINE_CURVE((1.,1.))
REPRESENTATION_ITEM('')
);
#234=(
BOUNDED_CURVE()
B_SPLINE_CURVE(1,(#497,#498),.UNSPECIFIED.,.F.,.F.)
B_SPLINE_CURVE_WITH_KNOTS((2,2),(0.,5.),.UNSPECIFIED.)
CURVE()
GEOMETRIC_REPRESENTATION_ITEM()
RATIONAL_B_SPLINE_CURVE((1.,1.))
REPRESENTATION_ITEM('')
);
#235=(
BOUNDED_CURVE()
B_SPLINE_CURVE(2,(#502,#503,#504),.UNSPECIFIED.,.F.,.F.)
B_SPLINE_CURVE_WITH_KNOTS((3,3),(-99.1805313869358,-96.7305313939172),
 .UNSPECIFIED.)
CURVE()
GEOMETRIC_REPRESENTATION_ITEM()
RATIONAL_B_SPLINE_CURVE((1.,1.,1.))
REPRESENTATION_ITEM('')
);
#236=(
BOUNDED_CURVE()
B_SPLINE_CURVE(2,(#505,#506,#507),.UNSPECIFIED.,.F.,.F.)
B_SPLINE_CURVE_WITH_KNOTS((3,3),(-104.730531393917,-102.280531386936),
 .UNSPECIFIED.)
CURVE()
GEOMETRIC_REPRESENTATION_ITEM()
RATIONAL_B_SPLINE_CURVE((1.,1.,1.))
REPRESENTATION_ITEM('')
);
#237=(
BOUNDED_CURVE()
B_SPLINE_CURVE(2,(#511,#512,#513),.UNSPECIFIED.,.F.,.F.)
B_SPLINE_CURVE_WITH_KNOTS((3,3),(96.7305313939172,99.1805313869358),
 .UNSPECIFIED.)
CURVE()
GEOMETRIC_REPRESENTATION_ITEM()
RATIONAL_B_SPLINE_CURVE((1.,1.,1.))
REPRESENTATION_ITEM('')
);
#238=(
BOUNDED_CURVE()
B_SPLINE_CURVE(2,(#514,#515,#516),.UNSPECIFIED.,.F.,.F.)
B_SPLINE_CURVE_WITH_KNOTS((3,3),(102.280531386936,104.730531393917),
 .UNSPECIFIED.)
CURVE()
GEOMETRIC_REPRESENTATION_ITEM()
RATIONAL_B_SPLINE_CURVE((1.,1.,1.))
REPRESENTATION_ITEM('')
);
#239=(
BOUNDED_CURVE()
B_SPLINE_CURVE(1,(#517,#518),.UNSPECIFIED.,.F.,.F.)
B_SPLINE_CURVE_WITH_KNOTS((2,2),(0.,5.),.UNSPECIFIED.)
CURVE()
GEOMETRIC_REPRESENTATION_ITEM()
RATIONAL_B_SPLINE_CURVE((1.,1.))
REPRESENTATION_ITEM('')
);
#240=(
BOUNDED_CURVE()
B_SPLINE_CURVE(1,(#519,#520),.UNSPECIFIED.,.F.,.F.)
B_SPLINE_CURVE_WITH_KNOTS((2,2),(0.,5.),.UNSPECIFIED.)
CURVE()
GEOMETRIC_REPRESENTATION_ITEM()
RATIONAL_B_SPLINE_CURVE((1.,1.))
REPRESENTATION_ITEM('')
);
#241=(
BOUNDED_CURVE()
B_SPLINE_CURVE(2,(#525,#526,#527),.UNSPECIFIED.,.F.,.F.)
B_SPLINE_CURVE_WITH_KNOTS((3,3),(-11.9889387333461,-9.53893872175851),
 .UNSPECIFIED.)
CURVE()
GEOMETRIC_REPRESENTATION_ITEM()
RATIONAL_B_SPLINE_CURVE((1.,1.,1.))
REPRESENTATION_ITEM('')
);
#242=(
BOUNDED_CURVE()
B_SPLINE_CURVE(1,(#528,#529),.UNSPECIFIED.,.F.,.F.)
B_SPLINE_CURVE_WITH_KNOTS((2,2),(0.,3.5),.UNSPECIFIED.)
CURVE()
GEOMETRIC_REPRESENTATION_ITEM()
RATIONAL_B_SPLINE_CURVE((1.,1.))
REPRESENTATION_ITEM('')
);
#243=(
BOUNDED_CURVE()
B_SPLINE_CURVE(2,(#530,#531,#532),.UNSPECIFIED.,.F.,.F.)
B_SPLINE_CURVE_WITH_KNOTS((3,3),(-4.43893872175851,-1.9889387333461),
 .UNSPECIFIED.)
CURVE()
GEOMETRIC_REPRESENTATION_ITEM()
RATIONAL_B_SPLINE_CURVE((1.,1.,1.))
REPRESENTATION_ITEM('')
);
#244=(
BOUNDED_CURVE()
B_SPLINE_CURVE(1,(#533,#534),.UNSPECIFIED.,.F.,.F.)
B_SPLINE_CURVE_WITH_KNOTS((2,2),(0.,3.5),.UNSPECIFIED.)
CURVE()
GEOMETRIC_REPRESENTATION_ITEM()
RATIONAL_B_SPLINE_CURVE((1.,1.))
REPRESENTATION_ITEM('')
);
#245=(
BOUNDED_CURVE()
B_SPLINE_CURVE(2,(#538,#539,#540),.UNSPECIFIED.,.F.,.F.)
B_SPLINE_CURVE_WITH_KNOTS((3,3),(9.53893872175851,11.9889387333461),
 .UNSPECIFIED.)
CURVE()
GEOMETRIC_REPRESENTATION_ITEM()
RATIONAL_B_SPLINE_CURVE((1.,1.,1.))
REPRESENTATION_ITEM('')
);
#246=(
BOUNDED_CURVE()
B_SPLINE_CURVE(2,(#541,#542,#543),.UNSPECIFIED.,.F.,.F.)
B_SPLINE_CURVE_WITH_KNOTS((3,3),(1.9889387333461,4.43893872175851),
 .UNSPECIFIED.)
CURVE()
GEOMETRIC_REPRESENTATION_ITEM()
RATIONAL_B_SPLINE_CURVE((1.,1.,1.))
REPRESENTATION_ITEM('')
);
#247=(
BOUNDED_CURVE()
B_SPLINE_CURVE(1,(#547,#548),.UNSPECIFIED.,.F.,.F.)
B_SPLINE_CURVE_WITH_KNOTS((2,2),(0.,3.5),.UNSPECIFIED.)
CURVE()
GEOMETRIC_REPRESENTATION_ITEM()
RATIONAL_B_SPLINE_CURVE((1.,1.))
REPRESENTATION_ITEM('')
);
#248=(
BOUNDED_CURVE()
B_SPLINE_CURVE(2,(#549,#550,#551),.UNSPECIFIED.,.F.,.F.)
B_SPLINE_CURVE_WITH_KNOTS((3,3),(-9.53893872175851,-4.43893872175851),
 .UNSPECIFIED.)
CURVE()
GEOMETRIC_REPRESENTATION_ITEM()
RATIONAL_B_SPLINE_CURVE((1.,1.,1.))
REPRESENTATION_ITEM('')
);
#249=(
BOUNDED_CURVE()
B_SPLINE_CURVE(1,(#552,#553),.UNSPECIFIED.,.F.,.F.)
B_SPLINE_CURVE_WITH_KNOTS((2,2),(0.,3.5),.UNSPECIFIED.)
CURVE()
GEOMETRIC_REPRESENTATION_ITEM()
RATIONAL_B_SPLINE_CURVE((1.,1.))
REPRESENTATION_ITEM('')
);
#250=(
BOUNDED_CURVE()
B_SPLINE_CURVE(1,(#562,#563),.UNSPECIFIED.,.F.,.F.)
B_SPLINE_CURVE_WITH_KNOTS((2,2),(10.9,12.4),.UNSPECIFIED.)
CURVE()
GEOMETRIC_REPRESENTATION_ITEM()
RATIONAL_B_SPLINE_CURVE((1.,1.))
REPRESENTATION_ITEM('')
);
#251=(
BOUNDED_CURVE()
B_SPLINE_CURVE(1,(#564,#565),.UNSPECIFIED.,.F.,.F.)
B_SPLINE_CURVE_WITH_KNOTS((2,2),(10.9,12.4),.UNSPECIFIED.)
CURVE()
GEOMETRIC_REPRESENTATION_ITEM()
RATIONAL_B_SPLINE_CURVE((1.,1.))
REPRESENTATION_ITEM('')
);
#252=B_SPLINE_CURVE_WITH_KNOTS('',1,(#459,#460),.UNSPECIFIED.,.F.,.F.,(2,
2),(-309.,-304.),.UNSPECIFIED.);
#253=B_SPLINE_CURVE_WITH_KNOTS('',1,(#461,#462),.UNSPECIFIED.,.F.,.F.,(2,
2),(0.,12.5),.UNSPECIFIED.);
#254=B_SPLINE_CURVE_WITH_KNOTS('',1,(#463,#464),.UNSPECIFIED.,.F.,.F.,(2,
2),(-309.,-304.),.UNSPECIFIED.);
#255=B_SPLINE_CURVE_WITH_KNOTS('',1,(#465,#466),.UNSPECIFIED.,.F.,.F.,(2,
2),(0.,12.5),.UNSPECIFIED.);
#256=B_SPLINE_CURVE_WITH_KNOTS('',1,(#467,#468),.UNSPECIFIED.,.F.,.F.,(2,
2),(-304.,-289.5),.UNSPECIFIED.);
#257=B_SPLINE_CURVE_WITH_KNOTS('',1,(#469,#470),.UNSPECIFIED.,.F.,.F.,(2,
2),(0.,12.5),.UNSPECIFIED.);
#258=B_SPLINE_CURVE_WITH_KNOTS('',1,(#471,#472),.UNSPECIFIED.,.F.,.F.,(2,
2),(-304.,-289.5),.UNSPECIFIED.);
#259=B_SPLINE_CURVE_WITH_KNOTS('',1,(#473,#474),.UNSPECIFIED.,.F.,.F.,(2,
2),(-289.5,-275.75),.UNSPECIFIED.);
#260=B_SPLINE_CURVE_WITH_KNOTS('',1,(#475,#476),.UNSPECIFIED.,.F.,.F.,(2,
2),(0.,12.5),.UNSPECIFIED.);
#261=B_SPLINE_CURVE_WITH_KNOTS('',1,(#477,#478),.UNSPECIFIED.,.F.,.F.,(2,
2),(-289.5,-159.5),.UNSPECIFIED.);
#262=B_SPLINE_CURVE_WITH_KNOTS('',1,(#479,#480),.UNSPECIFIED.,.F.,.F.,(2,
2),(-159.5,-154.5),.UNSPECIFIED.);
#263=B_SPLINE_CURVE_WITH_KNOTS('',1,(#481,#482),.UNSPECIFIED.,.F.,.F.,(2,
2),(0.,12.5),.UNSPECIFIED.);
#264=B_SPLINE_CURVE_WITH_KNOTS('',1,(#483,#484),.UNSPECIFIED.,.F.,.F.,(2,
2),(-159.5,-154.5),.UNSPECIFIED.);
#265=B_SPLINE_CURVE_WITH_KNOTS('',1,(#485,#486),.UNSPECIFIED.,.F.,.F.,(2,
2),(-154.5,-132.1),.UNSPECIFIED.);
#266=B_SPLINE_CURVE_WITH_KNOTS('',1,(#487,#488),.UNSPECIFIED.,.F.,.F.,(2,
2),(0.,12.5),.UNSPECIFIED.);
#267=B_SPLINE_CURVE_WITH_KNOTS('',1,(#489,#490),.UNSPECIFIED.,.F.,.F.,(2,
2),(-154.5,-19.5),.UNSPECIFIED.);
#268=B_SPLINE_CURVE_WITH_KNOTS('',1,(#491,#492),.UNSPECIFIED.,.F.,.F.,(2,
2),(-19.5,0.),.UNSPECIFIED.);
#269=B_SPLINE_CURVE_WITH_KNOTS('',1,(#493,#494),.UNSPECIFIED.,.F.,.F.,(2,
2),(-19.5,0.),.UNSPECIFIED.);
#270=B_SPLINE_CURVE_WITH_KNOTS('',1,(#521,#522),.UNSPECIFIED.,.F.,.F.,(2,
2),(-272.65,-159.5),.UNSPECIFIED.);
#271=B_SPLINE_CURVE_WITH_KNOTS('',1,(#523,#524),.UNSPECIFIED.,.F.,.F.,(2,
2),(-38.25,-19.5),.UNSPECIFIED.);
#272=B_SPLINE_CURVE_WITH_KNOTS('',1,(#554,#555),.UNSPECIFIED.,.F.,.F.,(2,
2),(-127.,-41.35),.UNSPECIFIED.);
#273=VERTEX_POINT('',#427);
#274=VERTEX_POINT('',#428);
#275=VERTEX_POINT('',#429);
#276=VERTEX_POINT('',#430);
#277=VERTEX_POINT('',#431);
#278=VERTEX_POINT('',#432);
#279=VERTEX_POINT('',#433);
#280=VERTEX_POINT('',#434);
#281=VERTEX_POINT('',#435);
#282=VERTEX_POINT('',#436);
#283=VERTEX_POINT('',#437);
#284=VERTEX_POINT('',#438);
#285=VERTEX_POINT('',#439);
#286=VERTEX_POINT('',#440);
#287=VERTEX_POINT('',#441);
#288=VERTEX_POINT('',#442);
#289=VERTEX_POINT('',#443);
#290=VERTEX_POINT('',#444);
#291=VERTEX_POINT('',#445);
#292=VERTEX_POINT('',#446);
#293=VERTEX_POINT('',#447);
#294=VERTEX_POINT('',#448);
#295=VERTEX_POINT('',#449);
#296=VERTEX_POINT('',#450);
#297=VERTEX_POINT('',#451);
#298=VERTEX_POINT('',#452);
#299=VERTEX_POINT('',#453);
#300=VERTEX_POINT('',#454);
#301=VERTEX_POINT('',#455);
#302=VERTEX_POINT('',#456);
#303=VERTEX_POINT('',#457);
#304=VERTEX_POINT('',#458);
#305=CYLINDRICAL_SURFACE('',#352,1.55);
#306=CYLINDRICAL_SURFACE('',#356,2.55000000000001);
#307=CYLINDRICAL_SURFACE('',#359,1.29999999999997);
#308=CYLINDRICAL_SURFACE('',#360,1.30000000000001);
#309=PLANE('',#343);
#310=PLANE('',#344);
#311=PLANE('',#345);
#312=PLANE('',#346);
#313=PLANE('',#347);
#314=PLANE('',#348);
#315=PLANE('',#349);
#316=PLANE('',#350);
#317=PLANE('',#351);
#318=PLANE('',#353);
#319=PLANE('',#354);
#320=PLANE('',#355);
#321=PLANE('',#357);
#322=PLANE('',#358);
#323=SHAPE_DEFINITION_REPRESENTATION(#324,#341);
#324=PRODUCT_DEFINITION_SHAPE($,$,#326);
#325=PRODUCT_DEFINITION_CONTEXT('3D Mechanical Parts',#330,'design');
#326=PRODUCT_DEFINITION('A','First version',#327,#325);
#327=PRODUCT_DEFINITION_FORMATION_WITH_SPECIFIED_SOURCE('A',
'First version',#332,.MADE.);
#328=PRODUCT_RELATED_PRODUCT_CATEGORY('tool','tool',(#332));
#329=APPLICATION_PROTOCOL_DEFINITION('Draft International Standard',
'automotive_design',1999,#330);
#330=APPLICATION_CONTEXT(
'data for automotive mechanical design processes');
#331=PRODUCT_CONTEXT('3D Mechanical Parts',#330,'mechanical');
#332=PRODUCT('Document','Document','',(#331));
#333=(
LENGTH_UNIT()
NAMED_UNIT(*)
SI_UNIT(.MILLI.,.METRE.)
);
#334=(
NAMED_UNIT(*)
PLANE_ANGLE_UNIT()
SI_UNIT($,.RADIAN.)
);
#335=DIMENSIONAL_EXPONENTS(0.,0.,0.,0.,0.,0.,0.);
#336=PLANE_ANGLE_MEASURE_WITH_UNIT(PLANE_ANGLE_MEASURE(0.01745329252),#334);
#337=(
CONVERSION_BASED_UNIT('DEGREES',#336)
NAMED_UNIT(#335)
PLANE_ANGLE_UNIT()
);
#338=(
NAMED_UNIT(*)
SI_UNIT($,.STERADIAN.)
SOLID_ANGLE_UNIT()
);
#339=UNCERTAINTY_MEASURE_WITH_UNIT(LENGTH_MEASURE(0.001),#333,
'DISTANCE_ACCURACY_VALUE',
'Maximum model space distance between geometric entities at asserted c
onnectivities');
#340=(
GEOMETRIC_REPRESENTATION_CONTEXT(3)
GLOBAL_UNCERTAINTY_ASSIGNED_CONTEXT((#339))
GLOBAL_UNIT_ASSIGNED_CONTEXT((#338,#337,#333))
REPRESENTATION_CONTEXT('ID1','3D')
);
#341=SHAPE_REPRESENTATION('Document',(#342,#369),#340);
#342=AXIS2_PLACEMENT_3D($,#408,#370,#371);
#343=AXIS2_PLACEMENT_3D('',#409,#372,$);
#344=AXIS2_PLACEMENT_3D('',#410,#373,$);
#345=AXIS2_PLACEMENT_3D('',#411,#374,$);
#346=AXIS2_PLACEMENT_3D('',#412,#375,$);
#347=AXIS2_PLACEMENT_3D('',#413,#376,$);
#348=AXIS2_PLACEMENT_3D('',#414,#377,$);
#349=AXIS2_PLACEMENT_3D('',#415,#378,$);
#350=AXIS2_PLACEMENT_3D('',#416,#379,$);
#351=AXIS2_PLACEMENT_3D('',#417,#380,$);
#352=AXIS2_PLACEMENT_3D('',#418,#381,$);
#353=AXIS2_PLACEMENT_3D('',#419,#382,$);
#354=AXIS2_PLACEMENT_3D('',#420,#383,$);
#355=AXIS2_PLACEMENT_3D('',#421,#384,$);
#356=AXIS2_PLACEMENT_3D('',#422,#385,$);
#357=AXIS2_PLACEMENT_3D('',#423,#386,$);
#358=AXIS2_PLACEMENT_3D('',#424,#387,$);
#359=AXIS2_PLACEMENT_3D('',#425,#388,$);
#360=AXIS2_PLACEMENT_3D('',#426,#389,$);
#361=AXIS2_PLACEMENT_3D($,#499,#390,#391);
#362=AXIS2_PLACEMENT_3D($,#508,#392,#393);
#363=AXIS2_PLACEMENT_3D($,#535,#394,#395);
#364=AXIS2_PLACEMENT_3D($,#544,#396,#397);
#365=AXIS2_PLACEMENT_3D($,#556,#398,#399);
#366=AXIS2_PLACEMENT_3D($,#559,#400,#401);
#367=AXIS2_PLACEMENT_3D($,#566,#402,#403);
#368=AXIS2_PLACEMENT_3D($,#569,#404,#405);
#369=AXIS2_PLACEMENT_3D($,#572,#406,#407);
#370=DIRECTION('',(0.,0.,1.));
#371=DIRECTION('',(1.,0.,0.));
#372=DIRECTION('',(0.,0.,1.));
#373=DIRECTION('',(1.,0.,0.));
#374=DIRECTION('',(0.,0.,1.));
#375=DIRECTION('',(1.,0.,0.));
#376=DIRECTION('',(0.,0.,-1.));
#377=DIRECTION('',(-1.,0.,0.));
#378=DIRECTION('',(0.,1.,0.));
#379=DIRECTION('',(1.,0.,0.));
#380=DIRECTION('',(-1.,0.,0.));
#381=DIRECTION('',(0.,0.,1.));
#382=DIRECTION('',(0.,-1.,0.));
#383=DIRECTION('',(-1.,0.,0.));
#384=DIRECTION('',(1.,0.,0.));
#385=DIRECTION('',(0.,0.,-1.));
#386=DIRECTION('',(0.,0.,-1.));
#387=DIRECTION('',(0.,-1.,0.));
#388=DIRECTION('',(0.,0.,-1.));
#389=DIRECTION('',(0.,0.,-1.));
#390=DIRECTION('',(0.,0.,1.));
#391=DIRECTION('',(1.,4.50413298056578E-9,0.));
#392=DIRECTION('',(2.86509166354725E-16,2.86509168935676E-16,-1.));
#393=DIRECTION('',(-1.,-4.5041326940566E-9,-5.73018335290402E-16));
#394=DIRECTION('',(0.,0.,-1.));
#395=DIRECTION('',(-1.,-4.54415154742231E-9,0.));
#396=DIRECTION('',(-1.07189014511347E-38,2.3588487852196E-30,1.));
#397=DIRECTION('',(1.,4.54409111645922E-9,9.66741305417897E-33));
#398=DIRECTION('',(0.,0.,-1.));
#399=DIRECTION('',(2.18628534080036E-14,-1.,0.));
#400=DIRECTION('',(0.,0.,1.));
#401=DIRECTION('',(-1.09314267040017E-14,-1.,0.));
#402=DIRECTION('',(0.,0.,-1.));
#403=DIRECTION('',(-1.09314267040014E-14,1.,0.));
#404=DIRECTION('',(0.,0.,1.));
#405=DIRECTION('',(2.18628534080026E-14,1.,0.));
#406=DIRECTION('',(0.,0.,1.));
#407=DIRECTION('',(1.,0.,0.));
#408=CARTESIAN_POINT('',(0.,0.,0.));
#409=CARTESIAN_POINT('',(0.,0.,19.5));
#410=CARTESIAN_POINT('',(5.,0.,19.5));
#411=CARTESIAN_POINT('',(5.,0.,5.));
#412=CARTESIAN_POINT('',(135.,0.,5.));
#413=CARTESIAN_POINT('',(135.,0.,0.));
#414=CARTESIAN_POINT('',(0.,0.,0.));
#415=CARTESIAN_POINT('',(135.,12.5,0.));
#416=CARTESIAN_POINT('',(18.75,2.44999999301859,0.));
#417=CARTESIAN_POINT('',(21.85,-5.77315972805081E-15,0.));
#418=CARTESIAN_POINT('',(20.3,2.45,8.7));
#419=CARTESIAN_POINT('',(135.,0.,0.));
#420=CARTESIAN_POINT('',(112.6,2.45000001158744,3.5));
#421=CARTESIAN_POINT('',(107.5,4.44089209850063E-16,3.5));
#422=CARTESIAN_POINT('',(110.05,2.44999999999999,-1.45));
#423=CARTESIAN_POINT('',(113.2375,-0.625000000000001,3.5));
#424=CARTESIAN_POINT('',(135.,0.,0.));
#425=CARTESIAN_POINT('',(110.05,2.44999999999996,8.7));
#426=CARTESIAN_POINT('',(110.05,2.44999999999997,8.7));
#427=CARTESIAN_POINT('',(0.,0.,19.5));
#428=CARTESIAN_POINT('',(5.,0.,19.5));
#429=CARTESIAN_POINT('',(5.,12.5,19.5));
#430=CARTESIAN_POINT('',(0.,12.5,19.5));
#431=CARTESIAN_POINT('',(5.,0.,5.));
#432=CARTESIAN_POINT('',(5.,12.5,5.));
#433=CARTESIAN_POINT('',(135.,0.,5.));
#434=CARTESIAN_POINT('',(135.,12.5,5.));
#435=CARTESIAN_POINT('',(135.,0.,0.));
#436=CARTESIAN_POINT('',(135.,12.5,0.));
#437=CARTESIAN_POINT('',(0.,0.,0.));
#438=CARTESIAN_POINT('',(0.,12.5,0.));
#439=CARTESIAN_POINT('',(18.75,-2.22044604925031E-16,5.));
#440=CARTESIAN_POINT('',(18.75,2.44999999301859,5.));
#441=CARTESIAN_POINT('',(21.85,0.,5.));
#442=CARTESIAN_POINT('',(21.85,2.45000000698141,5.));
#443=CARTESIAN_POINT('',(18.75,2.44999999301859,0.));
#444=CARTESIAN_POINT('',(18.75,-4.44089209850063E-16,0.));
#445=CARTESIAN_POINT('',(21.85,0.,0.));
#446=CARTESIAN_POINT('',(21.85,2.45000000698141,0.));
#447=CARTESIAN_POINT('',(112.6,2.45000001158744,3.5));
#448=CARTESIAN_POINT('',(107.5,2.4499999884124,3.5));
#449=CARTESIAN_POINT('',(112.6,-4.44089209850063E-16,2.22044604925031E-16));
#450=CARTESIAN_POINT('',(112.6,2.45000001158744,2.22044604925031E-16));
#451=CARTESIAN_POINT('',(107.5,0.,0.));
#452=CARTESIAN_POINT('',(107.5,2.4499999884124,2.22044604925031E-16));
#453=CARTESIAN_POINT('',(112.6,-8.88178419700125E-16,3.5));
#454=CARTESIAN_POINT('',(107.5,4.44089209850063E-16,3.5));
#455=CARTESIAN_POINT('',(110.05,1.14999999999999,5.));
#456=CARTESIAN_POINT('',(110.05,1.14999999999999,3.5));
#457=CARTESIAN_POINT('',(110.05,3.74999999999999,5.));
#458=CARTESIAN_POINT('',(110.05,3.74999999999999,3.5));
#459=CARTESIAN_POINT('',(0.,0.,19.5));
#460=CARTESIAN_POINT('',(5.,0.,19.5));
#461=CARTESIAN_POINT('',(5.,0.,19.5));
#462=CARTESIAN_POINT('',(5.,12.5,19.5));
#463=CARTESIAN_POINT('',(0.,12.5,19.5));
#464=CARTESIAN_POINT('',(5.,12.5,19.5));
#465=CARTESIAN_POINT('',(0.,0.,19.5));
#466=CARTESIAN_POINT('',(0.,12.5,19.5));
#467=CARTESIAN_POINT('',(5.,0.,19.5));
#468=CARTESIAN_POINT('',(5.,0.,5.));
#469=CARTESIAN_POINT('',(5.,0.,5.));
#470=CARTESIAN_POINT('',(5.,12.5,5.));
#471=CARTESIAN_POINT('',(5.,12.5,19.5));
#472=CARTESIAN_POINT('',(5.,12.5,5.));
#473=CARTESIAN_POINT('',(5.,0.,5.));
#474=CARTESIAN_POINT('',(18.75,-2.22044604925031E-16,5.));
#475=CARTESIAN_POINT('',(135.,0.,5.));
#476=CARTESIAN_POINT('',(135.,12.5,5.));
#477=CARTESIAN_POINT('',(5.,12.5,5.));
#478=CARTESIAN_POINT('',(135.,12.5,5.));
#479=CARTESIAN_POINT('',(135.,0.,5.));
#480=CARTESIAN_POINT('',(135.,0.,0.));
#481=CARTESIAN_POINT('',(135.,0.,0.));
#482=CARTESIAN_POINT('',(135.,12.5,0.));
#483=CARTESIAN_POINT('',(135.,12.5,5.));
#484=CARTESIAN_POINT('',(135.,12.5,0.));
#485=CARTESIAN_POINT('',(135.,0.,0.));
#486=CARTESIAN_POINT('',(112.6,-4.44089209850063E-16,2.22044604925031E-16));
#487=CARTESIAN_POINT('',(0.,0.,0.));
#488=CARTESIAN_POINT('',(0.,12.5,0.));
#489=CARTESIAN_POINT('',(135.,12.5,0.));
#490=CARTESIAN_POINT('',(0.,12.5,0.));
#491=CARTESIAN_POINT('',(0.,0.,0.));
#492=CARTESIAN_POINT('',(0.,0.,19.5));
#493=CARTESIAN_POINT('',(0.,12.5,0.));
#494=CARTESIAN_POINT('',(0.,12.5,19.5));
#495=CARTESIAN_POINT('',(18.75,2.44999999301859,0.));
#496=CARTESIAN_POINT('',(18.75,2.44999999301859,5.));
#497=CARTESIAN_POINT('',(21.85,2.45000000698141,0.));
#498=CARTESIAN_POINT('',(21.85,2.45000000698141,5.));
#499=CARTESIAN_POINT('',(20.3,2.45,0.));
#500=CARTESIAN_POINT('',(21.85,2.45000000698141,0.));
#501=CARTESIAN_POINT('',(18.75,2.44999999301859,0.));
#502=CARTESIAN_POINT('',(18.75,-2.22044604925031E-16,5.));
#503=CARTESIAN_POINT('',(18.75,1.2249999965093,5.));
#504=CARTESIAN_POINT('',(18.75,2.44999999301859,5.));
#505=CARTESIAN_POINT('',(21.85,2.45000000698141,5.));
#506=CARTESIAN_POINT('',(21.85,1.2250000034907,5.));
#507=CARTESIAN_POINT('',(21.85,0.,5.));
#508=CARTESIAN_POINT('',(20.3,2.45,5.));
#509=CARTESIAN_POINT('',(18.75,2.44999999301859,5.));
#510=CARTESIAN_POINT('',(21.85,2.45000000698141,5.));
#511=CARTESIAN_POINT('',(18.75,2.44999999301859,0.));
#512=CARTESIAN_POINT('',(18.75,1.2249999965093,0.));
#513=CARTESIAN_POINT('',(18.75,-4.44089209850063E-16,0.));
#514=CARTESIAN_POINT('',(21.85,0.,0.));
#515=CARTESIAN_POINT('',(21.85,1.2250000034907,0.));
#516=CARTESIAN_POINT('',(21.85,2.45000000698141,0.));
#517=CARTESIAN_POINT('',(18.75,-4.44089209850063E-16,0.));
#518=CARTESIAN_POINT('',(18.75,-2.22044604925031E-16,5.));
#519=CARTESIAN_POINT('',(21.85,0.,0.));
#520=CARTESIAN_POINT('',(21.85,0.,5.));
#521=CARTESIAN_POINT('',(21.85,0.,5.));
#522=CARTESIAN_POINT('',(135.,0.,5.));
#523=CARTESIAN_POINT('',(18.75,-4.44089209850063E-16,0.));
#524=CARTESIAN_POINT('',(0.,0.,0.));
#525=CARTESIAN_POINT('',(112.6,2.45000001158744,3.5));
#526=CARTESIAN_POINT('',(112.6,1.22500000579378,3.5));
#527=CARTESIAN_POINT('',(112.6,-8.88178419700125E-16,3.5));
#528=CARTESIAN_POINT('',(112.6,2.45000001158744,3.5));
#529=CARTESIAN_POINT('',(112.6,2.45000001158744,2.22044604925031E-16));
#530=CARTESIAN_POINT('',(107.5,4.44089209850063E-16,3.5));
#531=CARTESIAN_POINT('',(107.5,1.2249999942062,3.5));
#532=CARTESIAN_POINT('',(107.5,2.4499999884124,3.5));
#533=CARTESIAN_POINT('',(107.5,2.4499999884124,3.5));
#534=CARTESIAN_POINT('',(107.5,2.4499999884124,2.22044604925031E-16));
#535=CARTESIAN_POINT('',(110.05,2.44999999999999,3.5));
#536=CARTESIAN_POINT('',(107.5,2.4499999884124,3.5));
#537=CARTESIAN_POINT('',(112.6,2.45000001158744,3.5));
#538=CARTESIAN_POINT('',(112.6,-4.44089209850063E-16,2.22044604925031E-16));
#539=CARTESIAN_POINT('',(112.6,1.22500000579378,4.44089209850063E-16));
#540=CARTESIAN_POINT('',(112.6,2.45000001158744,2.22044604925031E-16));
#541=CARTESIAN_POINT('',(107.5,2.4499999884124,2.22044604925031E-16));
#542=CARTESIAN_POINT('',(107.5,1.2249999942062,3.33066907387547E-16));
#543=CARTESIAN_POINT('',(107.5,0.,0.));
#544=CARTESIAN_POINT('',(110.05,2.45,2.22044604925031E-16));
#545=CARTESIAN_POINT('',(112.6,2.45000001158744,2.22044604925031E-16));
#546=CARTESIAN_POINT('',(107.5,2.4499999884124,2.22044604925031E-16));
#547=CARTESIAN_POINT('',(112.6,-8.88178419700125E-16,3.5));
#548=CARTESIAN_POINT('',(112.6,-4.44089209850063E-16,2.22044604925031E-16));
#549=CARTESIAN_POINT('',(112.6,-8.88178419700125E-16,3.5));
#550=CARTESIAN_POINT('',(110.05,-4.44089209850063E-16,3.5));
#551=CARTESIAN_POINT('',(107.5,4.44089209850063E-16,3.5));
#552=CARTESIAN_POINT('',(107.5,4.44089209850063E-16,3.5));
#553=CARTESIAN_POINT('',(107.5,0.,0.));
#554=CARTESIAN_POINT('',(107.5,0.,0.));
#555=CARTESIAN_POINT('',(21.85,0.,0.));
#556=CARTESIAN_POINT('',(110.05,2.44999999999996,5.));
#557=CARTESIAN_POINT('',(110.05,1.14999999999999,5.));
#558=CARTESIAN_POINT('',(110.05,3.74999999999993,5.));
#559=CARTESIAN_POINT('',(110.05,2.44999999999997,3.5));
#560=CARTESIAN_POINT('',(110.05,1.14999999999999,3.5));
#561=CARTESIAN_POINT('',(110.05,3.74999999999996,3.5));
#562=CARTESIAN_POINT('',(110.05,1.14999999999999,5.));
#563=CARTESIAN_POINT('',(110.05,1.14999999999999,3.5));
#564=CARTESIAN_POINT('',(110.05,3.74999999999999,5.));
#565=CARTESIAN_POINT('',(110.05,3.74999999999999,3.5));
#566=CARTESIAN_POINT('',(110.05,2.44999999999997,5.));
#567=CARTESIAN_POINT('',(110.05,3.74999999999999,5.));
#568=CARTESIAN_POINT('',(110.05,1.14999999999996,5.));
#569=CARTESIAN_POINT('',(110.05,2.44999999999996,3.5));
#570=CARTESIAN_POINT('',(110.05,3.74999999999999,3.5));
#571=CARTESIAN_POINT('',(110.05,1.14999999999993,3.5));
#572=CARTESIAN_POINT('',(0.,0.,0.));
ENDSEC;
END-ISO-10303-21;
